<svg width="90" height="92" viewBox="0 0 90 92" fill="none" xmlns="http://www.w3.org/2000/svg">
<mask id="mask0_413_27" style="mask-type:luminance" maskUnits="userSpaceOnUse" x="0" y="0" width="90" height="92">
<path d="M88.7083 37.6667H46V55.375H70.5833C68.2917 66.625 58.7083 73.0833 46 73.0833C31 73.0833 18.9167 61 18.9167 46C18.9167 31 31 18.9167 46 18.9167C52.4583 18.9167 58.2917 21.2083 62.875 24.9583L76.2083 11.625C68.0833 4.54166 57.6667 0.166664 46 0.166664C20.5833 0.166664 0.166666 20.5833 0.166666 46C0.166666 71.4167 20.5833 91.8333 46 91.8333C68.9167 91.8333 89.75 75.1667 89.75 46C89.75 43.2917 89.3333 40.375 88.7083 37.6667Z" fill="white"/>
</mask>
<g mask="url(#mask0_413_27)">
<path d="M-4 73.0833V18.9167L31.4167 46L-4 73.0833Z" fill="#FBBC05"/>
</g>
<mask id="mask1_413_27" style="mask-type:luminance" maskUnits="userSpaceOnUse" x="0" y="0" width="90" height="92">
<path d="M88.7083 37.6667H46V55.375H70.5833C68.2917 66.625 58.7083 73.0833 46 73.0833C31 73.0833 18.9167 61 18.9167 46C18.9167 31 31 18.9167 46 18.9167C52.4583 18.9167 58.2917 21.2083 62.875 24.9583L76.2083 11.625C68.0833 4.54166 57.6667 0.166664 46 0.166664C20.5833 0.166664 0.166666 20.5833 0.166666 46C0.166666 71.4167 20.5833 91.8333 46 91.8333C68.9167 91.8333 89.75 75.1667 89.75 46C89.75 43.2917 89.3333 40.375 88.7083 37.6667Z" fill="white"/>
</mask>
<g mask="url(#mask1_413_27)">
<path d="M-4 18.9167L31.4167 46L46 33.2917L96 25.1667V-4H-4V18.9167Z" fill="#EA4335"/>
</g>
<mask id="mask2_413_27" style="mask-type:luminance" maskUnits="userSpaceOnUse" x="0" y="0" width="90" height="92">
<path d="M88.7083 37.6667H46V55.375H70.5833C68.2917 66.625 58.7083 73.0833 46 73.0833C31 73.0833 18.9167 61 18.9167 46C18.9167 31 31 18.9167 46 18.9167C52.4583 18.9167 58.2917 21.2083 62.875 24.9583L76.2083 11.625C68.0833 4.54166 57.6667 0.166664 46 0.166664C20.5833 0.166664 0.166666 20.5833 0.166666 46C0.166666 71.4167 20.5833 91.8333 46 91.8333C68.9167 91.8333 89.75 75.1667 89.75 46C89.75 43.2917 89.3333 40.375 88.7083 37.6667Z" fill="white"/>
</mask>
<g mask="url(#mask2_413_27)">
<path d="M-4 73.0833L58.5 25.1667L74.9583 27.25L96 -4V96H-4V73.0833Z" fill="#34A853"/>
</g>
<mask id="mask3_413_27" style="mask-type:luminance" maskUnits="userSpaceOnUse" x="0" y="0" width="90" height="92">
<path d="M88.7083 37.6667H46V55.375H70.5833C68.2917 66.625 58.7083 73.0833 46 73.0833C31 73.0833 18.9167 61 18.9167 46C18.9167 31 31 18.9167 46 18.9167C52.4583 18.9167 58.2917 21.2083 62.875 24.9583L76.2083 11.625C68.0833 4.54166 57.6667 0.166664 46 0.166664C20.5833 0.166664 0.166666 20.5833 0.166666 46C0.166666 71.4167 20.5833 91.8333 46 91.8333C68.9167 91.8333 89.75 75.1667 89.75 46C89.75 43.2917 89.3333 40.375 88.7083 37.6667Z" fill="white"/>
</mask>
<g mask="url(#mask3_413_27)">
<path d="M96 96L31.4167 46L23.0833 39.75L96 18.9167V96Z" fill="#4285F4"/>
</g>
</svg>
